<svg id="Layer_1" data-name="Layer 1" xmlns="http://www.w3.org/2000/svg" viewBox="0 0 352.33 352.33"><defs><style>.cls-1{fill:#c80013;}</style></defs><path class="cls-1" d="M175.33,352.33C84.71,352.16,8.43,282.4.68,192.65c-8-92.33,54.78-174.62,145-190C272.47-19.2,379.58,97.87,346.14,221.92c-2.35,8.7-4.25,10.36-12.85,7.24a79.56,79.56,0,0,1-20.84-11,110.1,110.1,0,0,1-41.55-64.76,97.81,97.81,0,0,0-97-75.28c-44.93.74-85,34.05-93.73,77.79-11.91,61.28,31.13,115.8,93.54,118.28,35.84,1.44,62.69,22.59,73.33,57.25,1.57,5.08-.74,6.24-4.3,7.82C224.59,347.3,198.84,352.38,175.33,352.33Z"/><path class="cls-1" d="M349.31,295a40.92,40.92,0,1,1-40.64-41.43A40.6,40.6,0,0,1,349.31,295Z"/></svg>