<svg id="Layer_1" data-name="Layer 1" xmlns="http://www.w3.org/2000/svg" viewBox="0 0 1000 285.71"><defs><style>.cls-1{fill:#c80013;}.cls-2{fill:#1f2f44;}.cls-3{fill:#999;}</style></defs><path class="cls-1" d="M142.18,285.71C68.69,285.58,6.83,229,.55,156.22-5.91,81.36,45,14.62,118.12,2.14,221-15.57,307.81,79.36,280.7,180c-1.9,7.06-3.45,8.4-10.42,5.87a64.06,64.06,0,0,1-16.9-9,89.22,89.22,0,0,1-33.69-52.51,79.34,79.34,0,0,0-78.7-61c-36.44.6-69,27.61-76,63.08-9.66,49.7,25.24,93.91,75.86,95.92,29.06,1.17,50.83,18.32,59.46,46.43,1.28,4.12-.6,5.06-3.48,6.34C182.13,281.64,161.25,285.76,142.18,285.71Z"/><path class="cls-1" d="M283.27,239.2a33.19,33.19,0,1,1-33-33.59,32.92,32.92,0,0,1,33,33.59Z"/><path class="cls-2" d="M499.53,162.5h-75a69,69,0,0,1-26.09-5A66.76,66.76,0,0,1,377,143.76a64.59,64.59,0,0,1-14.51-21A66.14,66.14,0,0,1,357.14,96a67.75,67.75,0,0,1,5.15-26.55,64.78,64.78,0,0,1,35.55-35.27,68.72,68.72,0,0,1,26.55-5.05,67,67,0,0,1,25.81,5,66.2,66.2,0,0,1,21,13.68,64.89,64.89,0,0,1,14.24,20.58,63.17,63.17,0,0,1,5.23,25.81,68.75,68.75,0,0,1-1.93,16.26,61.93,61.93,0,0,1-5.69,15,52.25,52.25,0,0,1-9.37,12.49A44.87,44.87,0,0,1,461,146.7v.37h38.58ZM423.84,146a47.62,47.62,0,0,0,19.56-4,45.44,45.44,0,0,0,15.25-10.83,49.08,49.08,0,0,0,9.83-16.26,56.89,56.89,0,0,0,3.49-20,51.64,51.64,0,0,0-3.58-19.29,47.26,47.26,0,0,0-44.55-29.95,46.53,46.53,0,0,0-19,3.86A47.92,47.92,0,0,0,389.66,60a48.57,48.57,0,0,0-10.1,15.53,49.38,49.38,0,0,0-3.68,19,56.85,56.85,0,0,0,3.49,20,50.08,50.08,0,0,0,9.83,16.35A46,46,0,0,0,423.84,146Z"/><path class="cls-2" d="M591,162.5H574.49V149.09h-.37a24.32,24.32,0,0,1-10.84,11.3,36,36,0,0,1-17.82,4.31,37.73,37.73,0,0,1-12.13-1.92,27.34,27.34,0,0,1-10-6,28.8,28.8,0,0,1-6.89-10.37,39.64,39.64,0,0,1-2.57-15v-56h16.53v51.45a29.12,29.12,0,0,0,1.66,10.38,18.91,18.91,0,0,0,4.41,7,16.49,16.49,0,0,0,6.34,3.86,23.23,23.23,0,0,0,7.44,1.19,27.06,27.06,0,0,0,9.55-1.65,19.92,19.92,0,0,0,7.72-5.24,24.66,24.66,0,0,0,5.14-9.09,41.54,41.54,0,0,0,1.84-13V75.41H591Z"/><path class="cls-2" d="M678.3,98.56a34.8,34.8,0,0,0-9.65-7.25,27,27,0,0,0-12-2.48,26.53,26.53,0,0,0-11.86,2.48,24.28,24.28,0,0,0-8.45,6.79,30.62,30.62,0,0,0-5.14,9.93,38.74,38.74,0,0,0-1.75,11.66,32.84,32.84,0,0,0,2,11.49,29.06,29.06,0,0,0,5.7,9.46A26.26,26.26,0,0,0,646,147a28.08,28.08,0,0,0,11.57,2.29,26.4,26.4,0,0,0,12-2.48,30.69,30.69,0,0,0,9.18-7.25l11.76,11.75a37,37,0,0,1-15,10.29,52.37,52.37,0,0,1-18.1,3.12,49.83,49.83,0,0,1-18.46-3.3,42.78,42.78,0,0,1-14.43-9.28,41.13,41.13,0,0,1-9.37-14.33,49.86,49.86,0,0,1-3.3-18.46,50.59,50.59,0,0,1,3.3-18.56,42.69,42.69,0,0,1,9.28-14.52,42.2,42.2,0,0,1,14.33-9.46,49.21,49.21,0,0,1,18.65-3.4,50.05,50.05,0,0,1,18.28,3.4,40.32,40.32,0,0,1,15.16,10.38Z"/><path class="cls-2" d="M700.34,119a44.3,44.3,0,0,1,3.59-17.82,46.48,46.48,0,0,1,85.43,0A44.29,44.29,0,0,1,792.94,119a45.24,45.24,0,0,1-13.41,32.42,46.68,46.68,0,0,1-14.7,9.74,48,48,0,0,1-36.38,0,46.68,46.68,0,0,1-14.7-9.74A45.35,45.35,0,0,1,700.34,119ZM718,119a35.73,35.73,0,0,0,2,12.22,27.45,27.45,0,0,0,5.7,9.55,26.23,26.23,0,0,0,9,6.25,32.27,32.27,0,0,0,23.88,0,26.46,26.46,0,0,0,9-6.25,27.58,27.58,0,0,0,5.69-9.55,38,38,0,0,0,0-24.44,27.58,27.58,0,0,0-5.69-9.55,26.32,26.32,0,0,0-9-6.25,32.14,32.14,0,0,0-23.88,0,26.09,26.09,0,0,0-9,6.25,27.45,27.45,0,0,0-5.7,9.55A35.73,35.73,0,0,0,718,119Z"/><path class="cls-2" d="M809.48,119a44.29,44.29,0,0,1,3.58-17.82,46.36,46.36,0,0,1,9.83-14.52,46.78,46.78,0,0,1,65.77,0,46.53,46.53,0,0,1,9.83,14.52A44.29,44.29,0,0,1,902.07,119a45.24,45.24,0,0,1-13.41,32.42,47.06,47.06,0,0,1-65.77,0A45.24,45.24,0,0,1,809.48,119Zm17.63,0a35.73,35.73,0,0,0,2,12.22,27.6,27.6,0,0,0,5.7,9.55,26.42,26.42,0,0,0,9,6.25,32.3,32.3,0,0,0,23.89,0,26.42,26.42,0,0,0,9-6.25,27.43,27.43,0,0,0,5.69-9.55,38,38,0,0,0,0-24.44,27.43,27.43,0,0,0-5.69-9.55,26.28,26.28,0,0,0-9-6.25,32.17,32.17,0,0,0-23.89,0,26.28,26.28,0,0,0-9,6.25,27.6,27.6,0,0,0-5.7,9.55A35.73,35.73,0,0,0,827.11,119Z"/><path class="cls-2" d="M922.84,75.41h16.53V88.83h.37a24.32,24.32,0,0,1,10.84-11.3,35.84,35.84,0,0,1,17.82-4.32,37.7,37.7,0,0,1,12,1.93,27.15,27.15,0,0,1,10.11,6,29,29,0,0,1,6.89,10.38,39.81,39.81,0,0,1,2.57,15v56H983.46V111.06a29.13,29.13,0,0,0-1.65-10.38,18.83,18.83,0,0,0-4.41-7,16.44,16.44,0,0,0-6.34-3.86,23.24,23.24,0,0,0-7.44-1.2,26.81,26.81,0,0,0-9.55,1.66,19.89,19.89,0,0,0-7.72,5.23,24.7,24.7,0,0,0-5.14,9.1,41.18,41.18,0,0,0-1.84,13V162.5H922.84Z"/><path class="cls-3" d="M541,232.63a11.31,11.31,0,0,0,1.54,5.5q2.58,3.94,9.11,4a15.5,15.5,0,0,0,5.32-.87c3.09-1.11,4.64-3.12,4.64-6,0-2.16-.66-3.71-2-4.63a19.29,19.29,0,0,0-6.24-2.35L548.18,227a23.25,23.25,0,0,1-7.24-2.63,8.39,8.39,0,0,1-3.67-7.45,11.63,11.63,0,0,1,3.61-8.8q3.61-3.44,10.22-3.43a17.45,17.45,0,0,1,10.35,3q4.24,3,4.25,9.66h-5.06a10.33,10.33,0,0,0-1.66-4.9c-1.58-2.08-4.25-3.12-8-3.12q-4.56,0-6.56,2a6.36,6.36,0,0,0-2,4.65,4.56,4.56,0,0,0,2.36,4.28,33.7,33.7,0,0,0,7,2.17l5.41,1.27a16.18,16.18,0,0,1,6,2.52q3.67,2.79,3.67,8.1,0,6.6-4.68,9.45a20.67,20.67,0,0,1-10.9,2.84q-7.23,0-11.33-3.79t-4-10.21Z"/><path class="cls-3" d="M573.27,205.69h5v5.52h-5Zm0,10.91h5v28.86h-5Z"/><path class="cls-3" d="M585,216.46h4.82v4.12a16.15,16.15,0,0,1,3.15-3.11,9.37,9.37,0,0,1,5.46-1.66,8.59,8.59,0,0,1,5.58,1.71,8.88,8.88,0,0,1,2.17,2.87,10.13,10.13,0,0,1,8.75-4.58q5.85,0,8,4.23a13.93,13.93,0,0,1,1.13,6.12v19.3H619V225.32c0-1.93-.48-3.26-1.45-4a5.73,5.73,0,0,0-3.53-1.09,7,7,0,0,0-4.94,1.93Q607,224.1,607,228.59v16.87h-5V226.54a10,10,0,0,0-.7-4.31c-.74-1.35-2.13-2-4.15-2a7.13,7.13,0,0,0-5,2.14q-2.26,2.15-2.26,7.74v15.38H585Z"/><path class="cls-3" d="M630.27,216.6H635v3.84a11.75,11.75,0,0,1,3.2-3.05,10.28,10.28,0,0,1,5.81-1.63,10.94,10.94,0,0,1,8.39,3.78q3.45,3.78,3.45,10.79,0,9.48-5,13.54a11.29,11.29,0,0,1-7.34,2.57,10.07,10.07,0,0,1-5.52-1.43,12.93,12.93,0,0,1-2.91-2.8V257h-4.87Zm18.34,22.73q2.26-2.85,2.27-8.54a15.91,15.91,0,0,0-1-6,6.94,6.94,0,0,0-7-4.79q-5.08,0-7,5.06a20,20,0,0,0-1,6.88,14.51,14.51,0,0,0,1,5.71,7.4,7.4,0,0,0,12.65,1.64Z"/><path class="cls-3" d="M661.1,205.69H666v39.77H661.1Z"/><path class="cls-3" d="M690.64,217.26A11.1,11.1,0,0,1,695,221a13.13,13.13,0,0,1,1.94,5.12,34.37,34.37,0,0,1,.43,6.39H676.3a12.53,12.53,0,0,0,2.07,7.1q1.93,2.69,6,2.68a7.73,7.73,0,0,0,6-2.53,8.62,8.62,0,0,0,1.79-3.4H697a10.27,10.27,0,0,1-1.26,3.56,13.07,13.07,0,0,1-2.38,3.21,11.24,11.24,0,0,1-5.46,2.92,16.42,16.42,0,0,1-3.95.43,12.08,12.08,0,0,1-9.12-3.94q-3.75-3.93-3.74-11t3.76-11.35a12.44,12.44,0,0,1,9.86-4.36A13.14,13.14,0,0,1,690.64,217.26Zm1.75,11.39a12.83,12.83,0,0,0-1.37-5.06c-1.32-2.35-3.54-3.53-6.63-3.53a7.32,7.32,0,0,0-5.59,2.43,9.21,9.21,0,0,0-2.39,6.16Z"/><path class="cls-3" d="M703.15,216.46h4.63v5a11.15,11.15,0,0,1,2.79-3.56,7.24,7.24,0,0,1,5.12-2.1l.46,0,1.11.11v5.14a6.23,6.23,0,0,0-.8-.1c-.24,0-.51,0-.8,0a7,7,0,0,0-5.66,2.37,8.25,8.25,0,0,0-2,5.45v16.68h-4.88Z"/><path class="cls-3" d="M738.06,207.61c1.13-1.66,3.33-2.49,6.58-2.49l1,0c.32,0,.69,0,1.1.08v4.44l-1.1-.07h-.65c-1.5,0-2.39.38-2.68,1.15a22.51,22.51,0,0,0-.44,5.86h4.87v3.84h-4.87v25H737v-25h-4V216.6h4v-4.55A8.69,8.69,0,0,1,738.06,207.61Z"/><path class="cls-3" d="M755.51,216.46v19.26a8.43,8.43,0,0,0,.68,3.63c.85,1.73,2.42,2.59,4.73,2.59a6.67,6.67,0,0,0,6.75-4.55,18.46,18.46,0,0,0,1-6.68V216.46h4.88v29h-4.61l.06-4.27a9.71,9.71,0,0,1-2.32,2.79,10.05,10.05,0,0,1-6.64,2.27q-6.09,0-8.29-4.14a12.64,12.64,0,0,1-1.19-5.93V216.46Z"/><path class="cls-3" d="M781.9,208.37h4.93v8.09h4.63v4h-4.63v18.93a2,2,0,0,0,1,2,4.3,4.3,0,0,0,1.89.3c.23,0,.49,0,.76,0s.59,0,1-.09v3.87a11.08,11.08,0,0,1-1.75.36,17.11,17.11,0,0,1-2,.1q-3.42,0-4.63-1.74a7.8,7.8,0,0,1-1.22-4.54v-19.2H778v-4h3.93Z"/><path class="cls-3" d="M800.65,216.46v19.26a8.43,8.43,0,0,0,.68,3.63c.85,1.73,2.42,2.59,4.73,2.59a6.67,6.67,0,0,0,6.75-4.55,18.69,18.69,0,0,0,1-6.68V216.46h4.88v29h-4.61l.06-4.27a9.71,9.71,0,0,1-2.32,2.79,10.05,10.05,0,0,1-6.64,2.27q-6.09,0-8.29-4.14a12.63,12.63,0,0,1-1.2-5.93V216.46Z"/><path class="cls-3" d="M826.2,216.46h4.63v5a11.15,11.15,0,0,1,2.79-3.56,7.21,7.21,0,0,1,5.11-2.1l.47,0,1.11.11v5.14a6.46,6.46,0,0,0-.8-.1c-.25,0-.51,0-.8,0a6.94,6.94,0,0,0-5.66,2.37,8.26,8.26,0,0,0-2,5.45v16.68H826.2Z"/><path class="cls-3" d="M861.89,217.26a11,11,0,0,1,4.38,3.75,13,13,0,0,1,1.94,5.12,33.31,33.31,0,0,1,.44,6.39h-21.1a12.53,12.53,0,0,0,2.07,7.1q1.93,2.69,6,2.68a7.73,7.73,0,0,0,6-2.53,8.62,8.62,0,0,0,1.79-3.4h4.79a10.27,10.27,0,0,1-1.26,3.56,12.85,12.85,0,0,1-2.39,3.21,11.21,11.21,0,0,1-5.45,2.92,16.42,16.42,0,0,1-3.95.43,12.11,12.11,0,0,1-9.13-3.94q-3.73-3.93-3.73-11t3.76-11.35a12.42,12.42,0,0,1,9.85-4.36A13.15,13.15,0,0,1,861.89,217.26Zm1.75,11.39a12.83,12.83,0,0,0-1.37-5.06q-2-3.53-6.63-3.53a7.3,7.3,0,0,0-5.59,2.43,9.16,9.16,0,0,0-2.39,6.16Z"/><path class="cls-3" d="M875.29,251.15a3.43,3.43,0,0,0,2.63-2.64,7.45,7.45,0,0,0,.4-2.36c0-.13,0-.24,0-.35a1.72,1.72,0,0,0-.07-.34h-3v-5.9h5.79V245a11.91,11.91,0,0,1-1.29,5.66,5.93,5.93,0,0,1-4.5,3Z"/><path class="cls-3" d="M904,216.46h4.63v4.12a13,13,0,0,1,4.36-3.66,11.62,11.62,0,0,1,5.12-1.11q6.17,0,8.34,4.31a15.35,15.35,0,0,1,1.19,6.74v18.6h-5V227.19a10,10,0,0,0-.78-4.28,4.76,4.76,0,0,0-4.71-2.71,9.79,9.79,0,0,0-2.85.35,7.39,7.39,0,0,0-3.52,2.39,7.09,7.09,0,0,0-1.58,3,19.53,19.53,0,0,0-.37,4.37v15.19H904Z"/><path class="cls-3" d="M955.27,219.36q3.84,3.73,3.85,11a19,19,0,0,1-3.39,11.58q-3.39,4.58-10.52,4.57a11.84,11.84,0,0,1-9.43-4q-3.49-4-3.5-10.86,0-7.31,3.68-11.64a12.36,12.36,0,0,1,9.9-4.33A13,13,0,0,1,955.27,219.36Zm-3,19.27a18.35,18.35,0,0,0,1.78-8.15,14.58,14.58,0,0,0-1.28-6.6q-2-4-7-4a6.9,6.9,0,0,0-6.42,3.4,16,16,0,0,0-2,8.23,13.8,13.8,0,0,0,2,7.7q2,3.09,6.37,3.09C948.86,242.3,951.05,241.07,952.24,238.63Z"/><path class="cls-3" d="M966.8,216.46l5.58,22.86L978,216.46h5.47l5.69,22.72,5.93-22.72H1000l-8.42,29h-5.06L980.61,223l-5.71,22.44h-5.06l-8.37-29Z"/></svg>