<svg id="Layer_1" data-name="Layer 1" xmlns="http://www.w3.org/2000/svg" viewBox="0 0 497.83 616.85"><defs><style>.cls-1{fill:#fff;}</style></defs><path class="cls-1" d="M248.08,352.33c-90.62-.17-166.9-69.93-174.65-159.68-8-92.33,54.78-174.62,145-190C345.23-19.2,452.33,97.87,418.89,221.92c-2.34,8.7-4.25,10.36-12.85,7.24a79.56,79.56,0,0,1-20.84-11,110.1,110.1,0,0,1-41.55-64.76,97.81,97.81,0,0,0-97-75.28c-44.94.74-85.05,34.05-93.74,77.79C141,217.14,184,271.66,246.42,274.14c35.84,1.44,62.69,22.59,73.33,57.25,1.58,5.08-.74,6.24-4.3,7.82C297.34,347.3,271.59,352.38,248.08,352.33Z"/><path class="cls-1" d="M422.06,295a40.92,40.92,0,1,1-40.64-41.43A40.6,40.6,0,0,1,422.06,295Z"/><path class="cls-1" d="M110.27,543.7h-58A53.59,53.59,0,0,1,32,539.86a51.82,51.82,0,0,1-16.65-10.67A50.25,50.25,0,0,1,4.12,512.9,51.25,51.25,0,0,1,0,492.2a52.55,52.55,0,0,1,4-20.56A50.37,50.37,0,0,1,15,455.2a50.93,50.93,0,0,1,16.5-10.88,53.28,53.28,0,0,1,20.56-3.91,51.92,51.92,0,0,1,20,3.84,51,51,0,0,1,16.29,10.6,50,50,0,0,1,11,15.93,49,49,0,0,1,4.06,20,53.21,53.21,0,0,1-1.5,12.59A47.89,47.89,0,0,1,97.53,515a39.85,39.85,0,0,1-7.26,9.67,34.45,34.45,0,0,1-9.88,6.83v.29h29.88ZM51.65,530.9a37,37,0,0,0,15.15-3.06,35.21,35.21,0,0,0,11.81-8.4,37.92,37.92,0,0,0,7.61-12.59,44.14,44.14,0,0,0,2.7-15.51,40,40,0,0,0-2.77-14.94,36.27,36.27,0,0,0-19.56-20.2,37,37,0,0,0-14.94-3,36,36,0,0,0-14.73,3,37,37,0,0,0-11.74,8.11,37.44,37.44,0,0,0-7.82,12,38.2,38.2,0,0,0-2.85,14.73,43.91,43.91,0,0,0,2.71,15.51,38.75,38.75,0,0,0,7.61,12.66A35.62,35.62,0,0,0,51.65,530.9Z"/><path class="cls-1" d="M181.12,543.7H168.31V533.31H168a18.83,18.83,0,0,1-8.4,8.75,27.76,27.76,0,0,1-13.8,3.35,29,29,0,0,1-9.39-1.5,21,21,0,0,1-7.75-4.62,22.37,22.37,0,0,1-5.34-8,30.69,30.69,0,0,1-2-11.59v-43.4h12.81V516.1a22.38,22.38,0,0,0,1.28,8,14.59,14.59,0,0,0,3.41,5.4,12.66,12.66,0,0,0,4.91,3,18,18,0,0,0,5.76.93,21,21,0,0,0,7.4-1.28,15.5,15.5,0,0,0,6-4.06,19.3,19.3,0,0,0,4-7,32,32,0,0,0,1.42-10.1V476.26h12.81Z"/><path class="cls-1" d="M248.7,494.19a26.76,26.76,0,0,0-7.47-5.62,21,21,0,0,0-9.32-1.92,20.62,20.62,0,0,0-9.18,1.92,18.59,18.59,0,0,0-6.54,5.26,23.51,23.51,0,0,0-4,7.69,29.88,29.88,0,0,0-1.36,9,25.05,25.05,0,0,0,1.57,8.89,22.32,22.32,0,0,0,4.41,7.33,20.3,20.3,0,0,0,6.83,4.91,21.81,21.81,0,0,0,9,1.78,20.49,20.49,0,0,0,9.25-1.92,23.76,23.76,0,0,0,7.11-5.62l9.11,9.1a28.62,28.62,0,0,1-11.59,8,40.63,40.63,0,0,1-14,2.42,38.71,38.71,0,0,1-14.3-2.56A32.93,32.93,0,0,1,207,535.66a31.59,31.59,0,0,1-7.25-11.1,38.45,38.45,0,0,1-2.56-14.29,39,39,0,0,1,2.56-14.37A32,32,0,0,1,218,477.33a37.9,37.9,0,0,1,14.44-2.63,38.6,38.6,0,0,1,14.16,2.63,31.15,31.15,0,0,1,11.74,8Z"/><path class="cls-1" d="M265.77,510a34.34,34.34,0,0,1,2.78-13.8,36,36,0,0,1,66.16,0,34.33,34.33,0,0,1,2.77,13.8,35,35,0,0,1-10.39,25.11,36.45,36.45,0,0,1-50.93,0A35.11,35.11,0,0,1,265.77,510Zm13.66,0a27.49,27.49,0,0,0,1.57,9.46,21.19,21.19,0,0,0,4.41,7.4,20.41,20.41,0,0,0,7,4.84,24.92,24.92,0,0,0,18.5,0,20.5,20.5,0,0,0,7-4.84,21.49,21.49,0,0,0,4.41-7.4,29.46,29.46,0,0,0,0-18.92,21.59,21.59,0,0,0-4.41-7.4,20.5,20.5,0,0,0-7-4.84,24.92,24.92,0,0,0-18.5,0,20.41,20.41,0,0,0-7,4.84,21.28,21.28,0,0,0-4.41,7.4A27.54,27.54,0,0,0,279.43,510Z"/><path class="cls-1" d="M350.29,510a34.33,34.33,0,0,1,2.77-13.8,36.08,36.08,0,0,1,7.61-11.24,36.25,36.25,0,0,1,50.94,0,36.08,36.08,0,0,1,7.61,11.24A34.33,34.33,0,0,1,422,510a35,35,0,0,1-10.38,25.11,36.1,36.1,0,0,1-11.39,7.54,37.07,37.07,0,0,1-28.17,0,36.05,36.05,0,0,1-11.38-7.54A35,35,0,0,1,350.29,510Zm13.65,0a27.49,27.49,0,0,0,1.57,9.46,21.19,21.19,0,0,0,4.41,7.4,20.5,20.5,0,0,0,7,4.84,24.92,24.92,0,0,0,18.5,0,20.5,20.5,0,0,0,7-4.84,21.34,21.34,0,0,0,4.41-7.4,29.46,29.46,0,0,0,0-18.92,21.43,21.43,0,0,0-4.41-7.4,20.5,20.5,0,0,0-7-4.84,24.92,24.92,0,0,0-18.5,0,20.5,20.5,0,0,0-7,4.84,21.28,21.28,0,0,0-4.41,7.4A27.54,27.54,0,0,0,363.94,510Z"/><path class="cls-1" d="M438.07,476.26h12.81v10.39h.28a18.85,18.85,0,0,1,8.39-8.75,27.82,27.82,0,0,1,13.81-3.35,29.1,29.1,0,0,1,9.31,1.5,21,21,0,0,1,7.83,4.62,22.37,22.37,0,0,1,5.34,8,30.91,30.91,0,0,1,2,11.6V543.7H485V503.86a22.38,22.38,0,0,0-1.28-8,14.67,14.67,0,0,0-3.41-5.4,12.86,12.86,0,0,0-4.91-3,18,18,0,0,0-5.76-.93,20.73,20.73,0,0,0-7.4,1.29,15.37,15.37,0,0,0-6,4,19.15,19.15,0,0,0-4,7A32.07,32.07,0,0,0,450.88,509V543.7H438.07Z"/><path class="cls-1" d="M73.15,598a8.75,8.75,0,0,0,1.19,4.26q2,3.06,7,3.06a12.23,12.23,0,0,0,4.12-.67q3.6-1.3,3.6-4.66a4.1,4.1,0,0,0-1.52-3.59,15.37,15.37,0,0,0-4.84-1.82l-4-.94a18.13,18.13,0,0,1-5.61-2,6.5,6.5,0,0,1-2.84-5.77A9,9,0,0,1,73.05,579q2.81-2.65,7.92-2.66a13.49,13.49,0,0,1,8,2.34c2.2,1.55,3.3,4,3.3,7.47H88.36a8.07,8.07,0,0,0-1.29-3.79Q85.24,580,80.86,580c-2.36,0-4.06.51-5.09,1.55a4.94,4.94,0,0,0-1.55,3.6,3.55,3.55,0,0,0,1.83,3.32,26.85,26.85,0,0,0,5.43,1.67l4.18,1a12.35,12.35,0,0,1,4.67,1.95,7.39,7.39,0,0,1,2.85,6.27q0,5.11-3.63,7.32a15.92,15.92,0,0,1-8.44,2.2c-3.73,0-6.66-1-8.77-2.94a10,10,0,0,1-3.11-7.9Z"/><path class="cls-1" d="M98.14,577.14H102v4.28H98.14Zm0,8.45H102V608H98.14Z"/><path class="cls-1" d="M107.25,585.49H111v3.19a12.61,12.61,0,0,1,2.43-2.41,7.29,7.29,0,0,1,4.24-1.28,6.67,6.67,0,0,1,4.32,1.32,7,7,0,0,1,1.68,2.22,8.1,8.1,0,0,1,2.95-2.67,8.29,8.29,0,0,1,3.82-.87q4.53,0,6.16,3.27a10.63,10.63,0,0,1,.88,4.74v15h-3.92v-15.6a3.64,3.64,0,0,0-1.12-3.09,4.48,4.48,0,0,0-2.73-.84,5.44,5.44,0,0,0-3.83,1.49c-1.07,1-1.61,2.65-1.61,5V608h-3.83V593.29a7.5,7.5,0,0,0-.55-3.33,3.32,3.32,0,0,0-3.21-1.58,5.53,5.53,0,0,0-3.89,1.66c-1.16,1.1-1.75,3.1-1.75,6V608h-3.77Z"/><path class="cls-1" d="M142.28,585.59H146v3a9.2,9.2,0,0,1,2.48-2.37,8,8,0,0,1,4.5-1.26,8.45,8.45,0,0,1,6.49,2.93c1.79,2,2.68,4.73,2.68,8.36q0,7.34-3.86,10.48a8.71,8.71,0,0,1-5.68,2,7.73,7.73,0,0,1-4.27-1.11,9.78,9.78,0,0,1-2.26-2.16V616.9h-3.77Zm14.2,17.61c1.17-1.48,1.76-3.68,1.76-6.62a12.25,12.25,0,0,0-.78-4.61,5.71,5.71,0,0,0-10.77.21,15.45,15.45,0,0,0-.78,5.32,11.26,11.26,0,0,0,.78,4.43,5.36,5.36,0,0,0,5.38,3.48A5.42,5.42,0,0,0,156.48,603.2Z"/><path class="cls-1" d="M166.15,577.14h3.78V608h-3.78Z"/><path class="cls-1" d="M189,586.11a8.58,8.58,0,0,1,3.4,2.9,10.13,10.13,0,0,1,1.5,4,26.3,26.3,0,0,1,.33,4.95H177.93a9.68,9.68,0,0,0,1.6,5.49,5.34,5.34,0,0,0,4.64,2.07,6,6,0,0,0,4.68-2,6.6,6.6,0,0,0,1.39-2.63H194a7.88,7.88,0,0,1-1,2.76,10.09,10.09,0,0,1-1.85,2.49,8.7,8.7,0,0,1-4.22,2.26,12.93,12.93,0,0,1-3.06.33,9.34,9.34,0,0,1-7.06-3q-2.9-3-2.9-8.54a12.94,12.94,0,0,1,2.92-8.79,9.59,9.59,0,0,1,7.63-3.37A10.1,10.1,0,0,1,189,586.11Zm1.35,8.82a9.74,9.74,0,0,0-1.06-3.93,5.43,5.43,0,0,0-5.13-2.72,5.69,5.69,0,0,0-4.33,1.87,7.19,7.19,0,0,0-1.85,4.78Z"/><path class="cls-1" d="M198.72,585.49h3.59v3.88a8.57,8.57,0,0,1,2.15-2.76,5.62,5.62,0,0,1,4-1.62,2.88,2.88,0,0,1,.36,0l.85.08v4A5.13,5.13,0,0,0,209,589l-.62,0A5.41,5.41,0,0,0,204,590.8a6.44,6.44,0,0,0-1.53,4.23V608h-3.77Z"/><path class="cls-1" d="M225.75,578.63c.88-1.28,2.58-1.93,5.09-1.93l.74,0,.86.07v3.44l-.86-.06h-.5c-1.16,0-1.85.3-2.08.89a17.76,17.76,0,0,0-.34,4.54h3.78v3h-3.78V608h-3.73V588.57h-3.12v-3h3.12v-3.52A6.79,6.79,0,0,1,225.75,578.63Z"/><path class="cls-1" d="M239.26,585.49V600.4a6.52,6.52,0,0,0,.53,2.81,3.7,3.7,0,0,0,3.66,2,5.17,5.17,0,0,0,5.23-3.52,14.44,14.44,0,0,0,.75-5.18v-11h3.78V608h-3.57l.05-3.32a7.31,7.31,0,0,1-1.8,2.16,7.74,7.74,0,0,1-5.14,1.77q-4.71,0-6.42-3.21a9.83,9.83,0,0,1-.93-4.6V585.49Z"/><path class="cls-1" d="M259.7,579.22h3.82v6.27h3.58v3.08h-3.58v14.66a1.58,1.58,0,0,0,.79,1.57,3.31,3.31,0,0,0,1.47.23h.59c.21,0,.45,0,.73-.07v3a9.49,9.49,0,0,1-1.35.27,14.4,14.4,0,0,1-1.52.08c-1.76,0-3-.45-3.59-1.35a6.07,6.07,0,0,1-.94-3.51V588.57h-3v-3.08h3Z"/><path class="cls-1" d="M274.22,585.49V600.4a6.52,6.52,0,0,0,.53,2.81,3.68,3.68,0,0,0,3.66,2,5.15,5.15,0,0,0,5.22-3.52,14.2,14.2,0,0,0,.76-5.18v-11h3.77V608H284.6l0-3.32a7.44,7.44,0,0,1-1.79,2.16,7.75,7.75,0,0,1-5.14,1.77q-4.72,0-6.42-3.21a9.7,9.7,0,0,1-.93-4.6V585.49Z"/><path class="cls-1" d="M294,585.49h3.58v3.88a8.49,8.49,0,0,1,2.16-2.76,5.62,5.62,0,0,1,4-1.62,2.88,2.88,0,0,1,.36,0l.86.08v4a5,5,0,0,0-.62-.08l-.62,0a5.39,5.39,0,0,0-4.38,1.83,6.44,6.44,0,0,0-1.53,4.23V608H294Z"/><path class="cls-1" d="M321.64,586.11A8.58,8.58,0,0,1,325,589a10.13,10.13,0,0,1,1.5,4,26.09,26.09,0,0,1,.34,4.95H310.54a9.68,9.68,0,0,0,1.6,5.49,5.35,5.35,0,0,0,4.64,2.07,5.93,5.93,0,0,0,4.68-2,6.48,6.48,0,0,0,1.39-2.63h3.71a7.84,7.84,0,0,1-1,2.76,10.34,10.34,0,0,1-1.85,2.49,8.78,8.78,0,0,1-4.23,2.26,12.93,12.93,0,0,1-3.06.33,9.35,9.35,0,0,1-7.06-3q-2.89-3-2.9-8.54a13,13,0,0,1,2.92-8.79A9.61,9.61,0,0,1,317,585,10.07,10.07,0,0,1,321.64,586.11Zm1.36,8.82a10.08,10.08,0,0,0-1.06-3.93,5.44,5.44,0,0,0-5.14-2.72,5.69,5.69,0,0,0-4.33,1.87,7.19,7.19,0,0,0-1.85,4.78Z"/><path class="cls-1" d="M332,612.35a2.66,2.66,0,0,0,2-2,5.82,5.82,0,0,0,.31-1.84,2.17,2.17,0,0,0,0-.26,1.47,1.47,0,0,0-.05-.26H332v-4.57h4.49v4.23a9.21,9.21,0,0,1-1,4.39,4.59,4.59,0,0,1-3.48,2.32Z"/><path class="cls-1" d="M354.23,585.49h3.59v3.19a10,10,0,0,1,3.37-2.84,9,9,0,0,1,4-.85q4.78,0,6.46,3.33a11.78,11.78,0,0,1,.93,5.22V608H368.7V593.79a7.58,7.58,0,0,0-.61-3.31,3.69,3.69,0,0,0-3.65-2.1,7.45,7.45,0,0,0-2.2.28,6.08,6.08,0,0,0-3.95,4.14,15.33,15.33,0,0,0-.28,3.38V608h-3.78Z"/><path class="cls-1" d="M394,587.73c2,1.93,3,4.76,3,8.51a14.65,14.65,0,0,1-2.63,9q-2.62,3.54-8.14,3.54a9.17,9.17,0,0,1-7.31-3.13,12.44,12.44,0,0,1-2.71-8.41q0-5.66,2.86-9a9.55,9.55,0,0,1,7.66-3.35A10.07,10.07,0,0,1,394,587.73Zm-2.35,14.93a14.29,14.29,0,0,0,1.38-6.32,11.4,11.4,0,0,0-1-5.11,5.6,5.6,0,0,0-5.44-3.1,5.34,5.34,0,0,0-5,2.64,12.3,12.3,0,0,0-1.56,6.37,10.69,10.69,0,0,0,1.56,6,5.46,5.46,0,0,0,4.93,2.38C389,605.49,390.69,604.55,391.61,602.66Z"/><path class="cls-1" d="M402.89,585.49l4.32,17.7,4.38-17.7h4.24l4.4,17.59,4.59-17.59h3.78L422.08,608h-3.92l-4.58-17.39L409.16,608h-3.92l-6.48-22.46Z"/></svg>